<?xml version="1.0" encoding="utf-8"?>
<!-- Generator: Adobe Illustrator 21.0.2, SVG Export Plug-In . SVG Version: 6.00 Build 0)  -->
<svg version="1.1" id="레이어_1" xmlns="http://www.w3.org/2000/svg" xmlns:xlink="http://www.w3.org/1999/xlink" x="0px"
	 y="0px" viewBox="0 0 140 25" style="enable-background:new 0 0 140 25;" xml:space="preserve">
<style type="text/css">
	.st0{fill:#0084DD;}
</style>
<polygon class="st0" points="0,25 4.3,25 4.3,14.6 4.3,10.3 4.3,4.2 25,4.2 25,0 0,0 "/>
<rect x="33.5" class="st0" width="4.3" height="25"/>
<polygon class="st0" points="7.2,14.7 21,14.7 23,10.5 7.2,10.5 "/>
<polygon class="st0" points="68.3,18.6 51.9,0 47.6,0 47.6,25 51.8,25 51.8,6.6 68.3,25 72.6,25 72.6,0 68.3,0 "/>
<path class="st0" d="M94.9,0L82.4,0v25h12.4c7.7,0,12.6-5.6,12.6-13.2C107.4,4.8,102.3,0,94.9,0z M93.5,21h-6.8V4.2l6.8,0
	c5.8,0,9.3,2.9,9.3,7.8C102.8,17.3,99.3,21,93.5,21z"/>
<polygon class="st0" points="127.8,0 122.3,0 110.1,25 114.8,25 124.7,4.6 125.4,4.6 130.1,14.4 122.9,14.4 120.9,18.7 132.2,18.7 
	135.3,25 140,25 "/>
</svg>
